<svg width="140" height="140" xmlns="http://www.w3.org/2000/svg" xmlns:xlink="http://www.w3.org/1999/xlink"><defs><circle id="b" cx="58" cy="58" r="58"/><filter x="-20.3%" y="-10.8%" width="140.5%" height="140.5%" filterUnits="objectBoundingBox" id="a"><feOffset dy="11" in="SourceAlpha" result="shadowOffsetOuter1"/><feGaussianBlur stdDeviation="6" in="shadowOffsetOuter1" result="shadowBlurOuter1"/><feColorMatrix values="0 0 0 0 0 0 0 0 0 0 0 0 0 0 0 0 0 0 0.120669158 0" in="shadowBlurOuter1"/></filter><path id="c" d="M.01 48.99V.042H85V48.99z"/></defs><g fill="none" fill-rule="evenodd"><g transform="translate(12 1)"><use fill="#000" filter="url(#a)" xlink:href="#b"/><use fill="#FFF" xlink:href="#b"/></g><g transform="translate(27 35)"><mask id="d" fill="#fff"><use xlink:href="#c"/></mask><path d="M56.63 25.753a1.408 1.408 0 0 0-1.945.457 1.42 1.42 0 0 0 .455 1.952c.084.052 8.36 5.3 8.36 13.17 0 .783.632 1.418 1.412 1.418.78 0 1.412-.635 1.412-1.417 0-3.936-1.687-7.885-4.88-11.421-2.362-2.617-4.716-4.097-4.815-4.159" fill="#007ABE" mask="url(#d)"/><path d="M51.862 31.78c-1.537-1.614-3.1-2.469-4.108-2.896V14.978c5.554.276 10.816 2.181 15.295 5.554 4.858 3.657 8.325 8.684 10.025 14.536l3.225 11.096h-19.55c-.07-4.425-1.01-10.318-4.887-14.385zm-14.07.979h7.138V2.877h-7.139v29.882zm45.796 13.406H79.24l-3.455-11.89c-1.873-6.447-5.69-11.983-11.042-16.011-4.972-3.744-10.82-5.846-16.989-6.125V1.46c0-.782-.632-1.417-1.412-1.417H36.38c-.78 0-1.412.635-1.412 1.417v2.188H1.412C.632 3.647 0 4.28 0 5.064s.632 1.418 1.412 1.418h33.556v22.673H1.412c-.78 0-1.412.634-1.412 1.417s.632 1.418 1.412 1.418h33.556v2.187c0 .782.632 1.417 1.412 1.417h9.962c.78 0 1.412-.635 1.412-1.417v-2.133c2.286 1.378 6.022 5.018 6.171 14.12H22.89c-.78 0-1.412.636-1.412 1.419 0 .782.632 1.417 1.412 1.417h60.698c.78 0 1.412-.635 1.412-1.417 0-.783-.632-1.418-1.412-1.418z" fill="#007ABE" mask="url(#d)"/></g><path d="M57.578 47c.786 0 1.422-.672 1.422-1.5s-.636-1.5-1.422-1.5H31.422c-.786 0-1.422.672-1.422 1.5s.636 1.5 1.422 1.5h26.156" fill="#007ABE"/></g></svg>