<svg height="23" viewBox="0 0 16 23" width="16" xmlns="http://www.w3.org/2000/svg"><path d="m19.6219507 15.7250833c-.0832224-.3069861-.2509576-.6340972-.3754687-.9209583-1.4857465-3.53625-4.7327124-4.804125-7.3548647-4.804125-3.50921336 0-7.37486394 2.3309861-7.8916173 7.1351111v.9806945c0 .0412083.01387041.4092083.0338696.5938472.28998831 2.2885 2.11443087 4.7220278 3.47663401 7.0118055 1.46542478 2.4530139 2.98633119 4.8664167 4.49304459 7.2785417.9299625-1.5748611 1.8560542-3.1695278 2.763437-4.7031806.2480545-.4491388.5354623-.8982777.7825491-1.3276111.1648321-.2871805.4812709-.5727639.6248135-.8385416 1.4654248-2.6577778 3.8256522-5.3356806 3.8256522-7.9736528v-1.0832361c0-.2855834-.3580501-1.2876806-.3780493-1.3486945zm-7.7370937 5.2749167c-1.0651286 0-2.23047707-.5201259-2.80549332-1.9581209-.08590284-.2288163-.0792437-.6877509-.0792437-.7297385v-.6460887c0-1.832158 1.59186602-2.6660519 2.97696602-2.6660519 1.7040724 0 3.022914 1.3338396 3.022914 3.000651 0 1.6668113-1.4100717 2.999349-3.115143 2.999349z" fill="#007abe" fill-rule="evenodd" transform="translate(-4 -10)"/></svg>