<svg width="61" height="78" xmlns="http://www.w3.org/2000/svg" xmlns:xlink="http://www.w3.org/1999/xlink"><defs><path id="a" d="M0 51.554v26.434h60.873V25.12H0z"/></defs><g fill="none" fill-rule="evenodd"><path d="M30.5 14c-.829 0-1.5-.627-1.5-1.4V1.4c0-.773.671-1.4 1.5-1.4S32 .627 32 1.4v11.2c0 .773-.671 1.4-1.5 1.4M11.625 17a1.37 1.37 0 0 1-.972-.403l-8.25-8.25a1.375 1.375 0 1 1 1.944-1.944l8.25 8.25A1.375 1.375 0 0 1 11.625 17M50.375 17a1.375 1.375 0 0 1-.972-2.347l8.25-8.25a1.375 1.375 0 1 1 1.944 1.944l-8.25 8.25c-.268.27-.62.403-.972.403" fill="#FFD302"/><path d="M8.778 70.21h44.444V40.915c0-9.995-8.1-18.125-18.057-18.125h-8.33c-9.957 0-18.057 8.13-18.057 18.125V70.21zM54.61 73H7.389A1.392 1.392 0 0 1 6 71.605v-30.69C6 29.382 15.347 20 26.835 20h8.33C46.653 20 56 29.382 56 40.915v30.69c0 .77-.622 1.395-1.389 1.395z" fill="#007ABE"/><mask id="b" fill="#fff"><use xlink:href="#a"/></mask><path d="M12.451 43.21a1.388 1.388 0 0 1-1.383-1.391c0-9.208 7.447-16.7 16.601-16.7.765 0 1.384.624 1.384 1.392 0 .768-.62 1.392-1.384 1.392-7.627 0-13.834 6.243-13.834 13.916 0 .768-.62 1.391-1.384 1.391M2.767 75.217h55.339v-2.783H2.766v2.783zM59.49 78H1.384A1.388 1.388 0 0 1 0 76.609v-5.567c0-.768.62-1.392 1.384-1.392H59.49c.764 0 1.383.624 1.383 1.392v5.567c0 .768-.62 1.391-1.383 1.391z" fill="#007ABE" mask="url(#b)"/></g></svg>
