<?xml version="1.0" encoding="UTF-8"?>
<svg width="61px" height="61px" viewBox="0 0 61 61" version="1.1" xmlns="http://www.w3.org/2000/svg" xmlns:xlink="http://www.w3.org/1999/xlink">
    <!-- Generator: Sketch 50.2 (55047) - http://www.bohemiancoding.com/sketch -->
    <title>Emergency icon</title>
    <desc>Created with Sketch.</desc>
    <defs>
        <polygon id="path-1" points="59.8928052 0.088787062 0 0.088787062 0 60.8357127 59.8928052 60.8357127 59.8928052 0.088787062"></polygon>
    </defs>
    <g id="Mockups" stroke="none" stroke-width="1" fill="none" fill-rule="evenodd">
        <g id="Home" transform="translate(-845.000000, -2345.000000)">
            <g id="Group-19" transform="translate(130.000000, 2317.000000)">
                <g id="Emergency-icon" transform="translate(715.000000, 28.000000)">
                    <g id="Emergency-Icon">
                        <g id="Emergency-icon">
                            <path d="M36.757929,56.0695103 C36.2227917,56.1886852 35.677011,56.2943245 35.1350689,56.3831611 C33.7180978,56.6176212 32.7816512,57.8325512 33.0440726,59.0966447 C33.1728406,59.7189676 33.5694389,60.2367403 34.1071934,60.575284 C34.6613493,60.9228514 35.3667814,61.0796767 36.0858231,60.9605019 C36.7314077,60.8542403 37.3815289,60.7283754 38.0194363,60.5861747 C39.4187846,60.2756355 40.2707818,59.0121643 39.9218171,57.7656515 C39.5735504,56.5180496 38.1578007,55.7589712 36.757929,56.0695103 Z" id="Fill-1" fill="#007ABE"></path>
                            <path d="M54.6476605,23.1921337 C54.8037391,23.7488962 55.1027655,24.2031157 55.4799804,24.5169113 C56.0389389,24.9822308 56.7703896,25.138512 57.4687147,24.865945 C58.6391552,24.4067921 59.2737656,22.9167477 58.8862549,21.5348843 C58.7095846,20.9050027 58.5138148,20.273183 58.3056603,19.6586299 C57.847571,18.3068952 56.5489549,17.6482945 55.4035824,18.1891998 C54.2594037,18.7295766 53.7022358,20.2636687 54.1603251,21.6154035 C54.3352048,22.1328754 54.4994902,22.6635617 54.6476605,23.1921337 Z" id="Fill-2" fill="#007ABE"></path>
                            <path d="M44.4115809,52.4207798 C44.0031956,52.7159423 43.582285,53.0011079 43.1576632,53.2691602 C42.050492,53.9687732 41.6716416,55.5196472 42.3101206,56.7321517 C42.483464,57.0617103 42.7141762,57.3311181 42.97999,57.5376641 C43.693466,58.0876626 44.6628592,58.169671 45.469888,57.6606767 C45.9743004,57.3417927 46.4762386,57.002915 46.9617857,56.6506516 C48.0273606,55.879027 48.3208537,54.3062955 47.6166558,53.1381839 C46.9123032,51.9693946 45.4777743,51.648308 44.4115809,52.4207798 Z" id="Fill-3" fill="#007ABE"></path>
                            <path d="M60.9764675,29.4934958 C60.9223944,28.0610381 59.7655617,26.9456708 58.3911054,27.0020463 C57.0184793,27.0582484 55.9486628,28.2650306 56.0019041,29.6967944 C56.0227015,30.2442437 56.0285247,30.7998458 56.0162127,31.3466013 C55.9967463,32.2451397 56.4178514,33.0460185 57.0730516,33.5272049 C57.4628774,33.8137659 57.9367246,33.9872289 58.4501699,33.9993713 C59.8241271,34.0305946 60.9621589,32.8949322 60.9926063,31.4619542 C61.0062493,30.8079986 61.0010916,30.1460637 60.9764675,29.4934958 Z" id="Fill-4" fill="#007ABE"></path>
                            <path d="M54.0152336,45.4722611 C52.9251089,44.6894342 51.3828648,44.9024312 50.5660534,45.9436271 C50.2535542,46.3425238 49.9242612,46.7363791 49.5872297,47.1154255 C48.7060414,48.1062079 48.8308435,49.5941934 49.865647,50.437989 C49.9247551,50.4858818 49.9846864,50.5296786 50.0464289,50.5707971 C51.0761283,51.2657154 52.5057542,51.1056526 53.3380424,50.1714278 C53.7406032,49.7191243 54.1336145,49.2483884 54.5071975,48.7721385 C55.3233504,47.730785 55.1028886,46.2538276 54.0152336,45.4722611 Z" id="Fill-5" fill="#007ABE"></path>
                            <path d="M58.1686027,36.7249596 C56.8729315,36.3185121 55.4929315,37.0403181 55.086411,38.3364447 C54.9310685,38.8316792 54.7589589,39.3293801 54.5727123,39.8168868 C54.1643836,40.8894016 54.5554521,42.0699407 55.4524932,42.7026307 C55.6168767,42.8182183 55.7985205,42.9158841 55.9951233,42.9903666 C57.2638356,43.4745849 58.6849315,42.8381132 59.1683836,41.5682938 C59.3893151,40.9890404 59.594137,40.3967978 59.779726,39.8078437 C60.185589,38.511717 59.4644384,37.1315714 58.1686027,36.7249596 Z" id="Fill-6" fill="#007ABE"></path>
                            <path d="M26.0380274,55.9544286 C23.8393973,55.5594906 21.7300274,54.8870108 19.7298082,53.9493208 C19.706137,53.936496 19.6849315,53.9223558 19.6606027,53.911504 C19.1891507,53.6892075 18.7185205,53.4516199 18.2626849,53.2036739 C18.2607123,53.2017008 18.2580822,53.2003854 18.2556164,53.1990701 C17.4189041,52.7386927 16.6020822,52.2286604 15.8084384,51.6699596 C4.23994521,43.5183208 1.45824658,27.4725256 9.60805479,15.901434 C11.380274,13.3862938 13.5249863,11.2873019 15.9156164,9.62451752 C15.9452055,9.60396496 15.9747945,9.5834124 16.0042192,9.56285984 C24.4295342,3.75618598 35.8696438,3.36502965 44.815726,9.33168464 L42.894411,12.1087466 C42.3601644,12.8815229 42.6884384,13.4446631 43.6239452,13.3606442 L51.9701918,12.6130243 C52.9065205,12.528841 53.466411,11.7189057 53.2147397,10.814593 L50.9730411,2.73743666 C50.7225205,1.83180863 50.0797808,1.72329111 49.5448767,2.49590296 L47.6192877,5.27954178 C41.054137,0.871757412 33.1798356,-0.809770889 25.3638904,0.546040431 C24.5766575,0.682180593 23.800274,0.849231806 23.0349041,1.04324798 C23.0291507,1.04439892 23.0238904,1.0450566 23.0194521,1.04637197 C22.989863,1.05344205 22.9597808,1.06314286 22.9308493,1.07087062 C16.1911233,2.80238275 10.3112877,6.73367655 6.11490411,12.3438679 C6.07956164,12.3856307 6.04306849,12.4267358 6.00969863,12.4722803 C5.87030137,12.6605418 5.73156164,12.8525849 5.59610959,13.044628 C5.37452055,13.3599865 5.15556164,13.6830728 4.9469589,14.0059946 C4.92065753,14.0452911 4.90060274,14.0844232 4.87758904,14.1242129 C1.41517808,19.491062 -0.254958904,25.6953046 0.0313972603,32.0120108 C0.0320547945,32.0325633 0.0309041096,32.0537736 0.0313972603,32.0749838 C0.0590136986,32.6922183 0.107835616,33.3178383 0.174575342,33.9337574 C0.177863014,33.9735472 0.18690411,34.0107062 0.193972603,34.0506604 C0.262027397,34.6697035 0.348657534,35.2908841 0.456493151,35.9112426 C1.55391781,42.2427466 4.53978082,47.940903 9.01479452,52.3745013 C9.0249863,52.3846954 9.036,52.3957116 9.04619178,52.4065633 C9.05013699,52.4111671 9.05391781,52.4129757 9.05786301,52.4169218 C10.2598356,53.602558 11.5678356,54.7000647 12.9754521,55.6918491 C16.6606027,58.2891995 20.7636164,60.0052561 25.1699178,60.7966119 C26.5075068,61.0366658 27.7846027,60.1464933 28.0241096,58.8099191 C28.264274,57.4721941 27.3749589,56.1933315 26.0380274,55.9544286 Z" id="Fill-8" fill="#007ABE"></path>
                            <path d="M28.9872722,11 C27.8891767,11 27,11.8803186 27,12.963925 L27,32.5298418 L45.1014258,41.7801637 C45.3924022,41.9297497 45.7047137,42 46.0111169,42 C46.7304343,42 47.4246421,41.6127312 47.7779823,40.9371605 C48.2811598,39.9739368 47.9004123,38.7894167 46.9252392,38.2919864 L30.9720827,30.1387368 L30.9720827,12.963925 C30.9720827,11.8803186 30.0842189,11 28.9872722,11 Z" id="Fill-10" fill="#FFD302"></path>
                        </g>
                        <g id="Emergency-icon" transform="translate(27.000000, 11.000000)"></g>
                    </g>
                    <g id="Group-9">
                        <mask id="mask-2" fill="white">
                            <use xlink:href="#path-1"></use>
                        </mask>
                        <g id="Clip-7"></g>
                    </g>
                </g>
            </g>
        </g>
    </g>
</svg>