<?xml version="1.0" encoding="UTF-8"?>
<svg width="80px" height="80px" viewBox="0 0 80 80" version="1.1" xmlns="http://www.w3.org/2000/svg" xmlns:xlink="http://www.w3.org/1999/xlink">
    <!-- Generator: Sketch 50.2 (55047) - http://www.bohemiancoding.com/sketch -->
    <title>guarantee</title>
    <desc>Created with Sketch.</desc>
    <defs>
        <polygon id="path-1" points="0.0936078007 0.121343445 0.0936078007 79.9984399 79.8770964 79.9984399 79.8770964 0.121343445"></polygon>
    </defs>
    <g id="Mockups" stroke="none" stroke-width="1" fill="none" fill-rule="evenodd">
        <g id="Home" transform="translate(-533.000000, -2335.000000)">
            <g id="Group-19" transform="translate(130.000000, 2317.000000)">
                <g id="guarantee" transform="translate(403.000000, 18.000000)">
                    <g id="Group-3">
                        <mask id="mask-2" fill="white">
                            <use xlink:href="#path-1"></use>
                        </mask>
                        <g id="Clip-2"></g>
                        <path d="M78.1281907,36.2539545 C77.580585,35.528494 77.0189382,34.7858722 76.9284507,34.2008234 C76.8301625,33.584572 77.1406284,32.6765764 77.4464139,31.7997833 C77.8848104,30.5313976 78.3778115,29.0867172 77.9331744,27.7153629 C77.4822969,26.3206067 76.2201517,25.4375731 75.1062189,24.6575081 C74.3557963,24.1333044 73.5819718,23.5903792 73.3073889,23.059935 C73.0281257,22.5123294 73.0452871,21.5606501 73.0577681,20.6401733 C73.0827302,19.2875406 73.1061322,17.7586132 72.2527411,16.5822752 C71.3946696,15.3996966 69.9250271,14.9550596 68.6332394,14.5587866 C67.7564464,14.2904442 66.8484507,14.0158613 66.4147346,13.5837053 C65.9888191,13.1562297 65.7142362,12.248234 65.4458938,11.371441 C65.0496208,10.0734128 64.5987432,8.61001083 63.4224052,7.75193933 C62.2460672,6.89230769 60.7171398,6.91570964 59.364507,6.94067172 C58.4440303,6.95939328 57.4876706,6.97187432 56.9447454,6.69105092 C56.4080607,6.42270856 55.8713759,5.64888407 55.3487324,4.89846154 C54.5686674,3.78452871 53.6840737,2.52238353 52.2893174,2.06526544 C50.9117226,1.62062839 49.4732828,2.11986999 48.2002167,2.55358613 C47.3218635,2.85781148 46.4138678,3.16827736 45.7976165,3.0715493 C45.2188082,2.97950163 44.4699458,2.41941495 43.7444854,1.87648971 C42.660195,1.05430119 41.4230119,0.121343445 39.9424485,0.121343445 C38.4540845,0.121343445 37.2231419,1.05430119 36.1326111,1.87648971 C35.4071506,2.41941495 34.6645287,2.97950163 34.07948,3.0715493 C33.4632286,3.17451788 32.5552329,2.85781148 31.6784399,2.55358613 C30.4100542,2.11362947 28.9653738,1.62062839 27.5955796,2.06526544 C26.1992633,2.52238353 25.3162297,3.78452871 24.5361647,4.89846154 C24.011961,5.64264355 23.4690358,6.41646804 22.9385915,6.69105092 C22.3909859,6.97187432 21.4330661,6.95315276 20.5188299,6.94067172 C19.1661972,6.91102925 17.6372698,6.89230769 16.4609317,7.74569881 C15.2783532,8.60377031 14.8337161,10.0734128 14.4374431,11.3652004 C14.1691008,12.2435536 13.8945179,13.1515493 13.4623619,13.5837053 C13.0348862,14.0096208 12.1268906,14.2904442 11.2500975,14.5587866 C9.95206934,14.9488191 8.48866739,15.3996966 7.63059588,16.5822752 C6.77096425,17.7523727 6.7943662,19.2813001 6.81932828,20.6339328 C6.83180932,21.5544095 6.85053088,22.5123294 6.56970748,23.059935 C6.30136511,23.5903792 5.52754063,24.1333044 4.77711809,24.6575081 C3.66318527,25.4313326 2.40104009,26.3143662 1.94392199,27.7153629 C1.49928494,29.0867172 1.99852654,30.5313976 2.43692308,31.7997833 C2.73646804,32.6765764 3.05317443,33.584572 2.95644637,34.2008234 C2.8643987,34.7858722 2.29807151,35.528494 1.75514626,36.2539545 C0.932957746,37.3444854 0,38.575428 0,40.063792 C0,41.5443554 0.932957746,42.7815385 1.75514626,43.8658288 C2.29807151,44.5912893 2.85815818,45.3401517 2.95020585,45.9189599 L5.41833153,45.5289274 C5.2295558,44.335428 4.47289274,43.3353846 3.74743229,42.3665439 C3.13274106,41.5505959 2.49932828,40.7096858 2.49932828,40.063792 C2.49932828,39.4116576 3.13274106,38.5707476 3.74743229,37.7532394 C4.47289274,36.7843987 5.2295558,35.7843554 5.41833153,34.5908559 C5.61334778,33.3599133 5.1983532,32.1523727 4.79583965,30.9885157 C4.46665222,30.0446371 4.13122427,29.0633153 4.32156013,28.484507 C4.51657638,27.8807367 5.37464789,27.2832069 6.20463705,26.6981582 C7.20312026,26.0039003 8.23904659,25.2846804 8.79445287,24.1941495 C9.35453954,23.0911376 9.33581798,21.8227519 9.31241603,20.5980498 C9.29993499,19.5870856 9.28121343,18.5495991 9.64784399,18.0503575 C10.0129144,17.5448754 11.0129577,17.2406501 11.975558,16.9473456 C13.1456555,16.5885157 14.3578765,16.2156446 15.2299892,15.3513326 C16.1005417,14.4792199 16.4671723,13.2669989 16.8260022,12.0969014 C17.1193066,11.1343012 17.423532,10.1342579 17.9290141,9.76294691 C18.4282557,9.40255688 19.4704225,9.41503792 20.4767064,9.43375948 C21.7014085,9.45092091 22.9697941,9.47588299 24.0728061,8.91579632 C25.1633369,8.36039003 25.8825569,7.32446371 26.5830553,6.3259805 C27.1618635,5.49599133 27.7656338,4.63791983 28.3694041,4.44290358 C28.9419718,4.25256771 29.9232936,4.58799567 30.8671723,4.9171831 C32.0310293,5.31969664 33.2385699,5.73469122 34.4695125,5.53967497 C35.6630119,5.35089924 36.6692958,4.59423619 37.6381365,3.86877573 C38.4494041,3.25408451 39.2903142,2.62067172 39.9424485,2.62067172 C40.5883424,2.62067172 41.4292524,3.25408451 42.2452004,3.86877573 C43.2140412,4.59423619 44.2140845,5.35089924 45.407584,5.53967497 C46.6400867,5.7284507 47.8460672,5.31969664 49.0099242,4.9171831 C49.9600433,4.58799567 50.9351246,4.25256771 51.515493,4.44290358 C52.1177031,4.63791983 52.7214735,5.49599133 53.3002817,6.3259805 C53.9945395,7.32446371 54.72,8.36039003 55.8058505,8.91579632 C56.9088624,9.47588299 58.1819285,9.45716143 59.4066306,9.43375948 C60.4129144,9.42127844 61.4550813,9.40255688 61.9543229,9.76294691 C62.459805,10.1342579 62.7593499,11.1343012 63.0573348,12.0969014 C63.4114843,13.2669989 63.7827952,14.4792199 64.6533478,15.3513326 C65.5192199,16.2218852 66.731441,16.5885157 67.9015385,16.9473456 C68.8656988,17.2406501 69.864182,17.5448754 70.2370531,18.0503575 C70.6021235,18.5495991 70.583402,19.5870856 70.5646804,20.5980498 C70.547519,21.8227519 70.5225569,23.0911376 71.0888841,24.1941495 C71.6442904,25.2846804 72.6739762,26.0039003 73.6740195,26.6981582 C74.5024485,27.2832069 75.3620802,27.8807367 75.5633369,28.484507 C75.7458722,29.0633153 75.4104442,30.0446371 75.0874973,30.9885157 C74.6849837,32.1523727 74.2699892,33.3599133 74.460325,34.5908559 C74.6491008,35.7843554 75.4042037,36.7843987 76.1359047,37.7532394 C76.7443554,38.5707476 77.3855688,39.4116576 77.3855688,40.063792 C77.3855688,40.7096858 76.7443554,41.5505959 76.1359047,42.3665439 C75.4042037,43.3353846 74.6491008,44.335428 74.460325,45.5289274 L76.9284507,45.9189599 C77.0189382,45.3401517 77.580585,44.5912893 78.1281907,43.8658288 C78.9456988,42.7815385 79.8770964,41.5443554 79.8770964,40.063792 C79.8770964,38.575428 78.9456988,37.3444854 78.1281907,36.2539545 Z M67.9015385,63.1786782 C66.731441,63.5328277 65.5192199,63.9041387 64.6486674,64.7746912 C63.7827952,65.6405634 63.4114843,66.8527844 63.0510943,68.0228819 C62.7593499,68.9870423 62.4535645,69.9855255 61.9480823,70.3583965 C61.4488407,70.7172264 60.4066739,70.6985049 59.4066306,70.6860238 C58.175688,70.6688624 56.9088624,70.6439003 55.8058505,71.203987 C54.72,71.7656338 53.9945395,72.7953196 53.3002817,73.7953629 C52.7152329,74.623792 52.1177031,75.4834236 51.515493,75.6784399 C50.9351246,75.8734561 49.9600433,75.5317876 49.0099242,75.2088407 C47.8460672,74.8063272 46.6400867,74.3975731 45.407584,74.5816685 C44.2140845,74.7704442 43.2140412,75.5255471 42.2452004,76.2572481 C41.4292524,76.8656988 40.5883424,77.5069122 39.9424485,77.5069122 C39.2903142,77.5069122 38.4494041,76.8656988 37.631896,76.2572481 C36.6630553,75.5255471 35.6630119,74.7704442 34.4695125,74.5816685 C33.2385699,74.3975731 32.0310293,74.8063272 30.8671723,75.2088407 C29.9232936,75.5317876 28.9482124,75.8734561 28.3631636,75.6784399 C27.7593933,75.4834236 27.1618635,74.623792 26.5768147,73.7953629 C25.8825569,72.7953196 25.1570964,71.7593933 24.0728061,71.203987 C22.9697941,70.6439003 21.7014085,70.6626219 20.4767064,70.6860238 C19.4704225,70.6985049 18.4282557,70.7172264 17.9290141,70.352156 C17.423532,69.9855255 17.1193066,68.9870423 16.8260022,68.0228819 C16.4671723,66.8527844 16.0943012,65.6405634 15.2299892,64.7684507 C14.3578765,63.9041387 13.1456555,63.5328277 11.975558,63.1724377 C11.0129577,62.8806934 10.0129144,62.5749079 9.64160347,62.0694258 L7.62435536,63.5375081 C8.483987,64.7200867 9.95206934,65.1647237 11.243857,65.5609967 C12.1222102,65.8293391 13.0348862,66.1101625 13.4623619,66.536078 C13.8882774,66.9635536 14.1691008,67.8715493 14.4374431,68.7545829 C14.8337161,70.0463705 15.2783532,71.516013 16.4609317,72.3694041 C17.6372698,73.2274756 19.1661972,73.1978332 20.5188299,73.1791116 C21.4330661,73.1666306 22.3909859,73.1494691 22.9385915,73.4287324 C23.4690358,73.6970748 24.011961,74.4708992 24.5361647,75.2213218 C25.3162297,76.3368147 26.1930228,77.5973998 27.5955796,78.0545179 C28.9653738,78.4929144 30.4100542,78.0061538 31.6784399,77.5677573 C32.5552329,77.2619718 33.4632286,76.9390249 34.07948,77.0497941 C34.6645287,77.1402817 35.4071506,77.7019285 36.1326111,78.2495341 C37.2231419,79.0670423 38.4540845,79.9984399 39.9424485,79.9984399 C41.4230119,79.9984399 42.660195,79.0670423 43.7444854,78.2495341 C44.4699458,77.7019285 45.2188082,77.1402817 45.7976165,77.0497941 C46.4076273,76.9390249 47.3218635,77.2619718 48.2002167,77.5677573 C49.4732828,78.0061538 50.9179632,78.4991549 52.2830769,78.0545179 C53.6840737,77.6036403 54.5686674,76.3368147 55.3424919,75.2213218 C55.8666956,74.4771398 56.4080607,73.7033153 56.9385049,73.4287324 C57.4876706,73.1494691 58.4377898,73.1666306 59.364507,73.1791116 C60.7046587,73.2040737 62.2413868,73.2274756 63.4161647,72.3740845 C64.5987432,71.516013 65.0433803,70.0463705 65.4396533,68.7545829 C65.7079957,67.8777898 65.9825785,66.9697941 66.4147346,66.536078 C66.8422102,66.1101625 67.7502059,65.8355796 68.6269989,65.5672373 C69.9250271,65.1709642 71.388429,64.7200867 72.2480607,63.5437486 L70.2308126,62.0756663 C69.864182,62.5749079 68.8656988,62.8806934 67.9015385,63.1786782 Z" id="Fill-1" fill="#007ABE" mask="url(#mask-2)"></path>
                    </g>
                    <path d="M9.39383333,57.2525571 L9.39383333,54.7490527 C9.39383333,54.0598858 8.84654167,53.4973005 8.16666667,53.4973005 L5.69691667,53.4973005 L5.69691667,56.0008049 L6.93179167,56.0008049 L6.93179167,57.2525571 C6.93179167,57.9417241 6.37679167,58.5043093 5.69691667,58.5043093 C5.01704167,58.5043093 4.46204167,57.9417241 4.46204167,57.2525571 L4.46204167,49.7498577 C4.46204167,49.0606907 5.01704167,48.4981055 5.69691667,48.4981055 C6.37679167,48.4981055 6.93179167,49.0606907 6.93179167,49.7498577 L6.93179167,51.0016099 L9.39383333,51.0016099 L9.39383333,49.7498577 C9.39383333,47.6807941 7.73808333,46.0024148 5.69691667,46.0024148 C3.65575,46.0024148 2,47.6807941 2,49.7498577 L2,57.2525571 C2,59.3216207 3.65575,61 5.69691667,61 C7.73808333,61 9.39383333,59.3216207 9.39383333,57.2525571 Z M10.6287083,46.0024148 L10.6287083,57.2525571 C10.6287083,59.3216207 12.290625,61 14.3333333,61 C16.3683333,61 18.03025,59.3216207 18.03025,57.2525571 L18.03025,46.0024148 L15.5605,46.0024148 L15.5605,57.2525571 C15.5605,57.9417241 15.0070417,58.5043093 14.3333333,58.5043093 C13.6519167,58.5043093 13.0984583,57.9417241 13.0984583,57.2525571 L13.0984583,46.0024148 L10.6287083,46.0024148 Z M19.265125,49.7498577 L19.265125,61 L21.7271667,61 L21.7271667,58.5043093 L24.1969167,58.5043093 L24.1969167,61 L26.6666667,61 L26.6666667,49.7498577 C26.6666667,47.6807941 25.0032083,46.0024148 22.9620417,46.0024148 C20.920875,46.0024148 19.265125,47.6807941 19.265125,49.7498577 Z M24.1969167,49.7498577 L24.1969167,56.0008049 L21.7271667,56.0008049 L21.7271667,49.7498577 C21.7271667,49.0606907 22.2821667,48.4981055 22.9620417,48.4981055 C23.6434583,48.4981055 24.1969167,49.0606907 24.1969167,49.7498577 Z M36.53025,49.7498577 L36.53025,61 L39,61 L39,58.5043093 L41.4620417,58.5043093 L41.4620417,61 L43.9317917,61 L43.9317917,49.7498577 C43.9317917,47.6807941 42.269875,46.0024148 40.2271667,46.0024148 C38.1921667,46.0024148 36.53025,47.6807941 36.53025,49.7498577 Z M40.2271667,48.4981055 C40.9085833,48.4981055 41.4620417,49.0606907 41.4620417,49.7498577 L41.4620417,56.0008049 L39,56.0008049 L39,49.7498577 C39,49.0606907 39.5534583,48.4981055 40.2271667,48.4981055 Z M27.8938333,47.2463533 L27.8938333,61 L30.3635833,61 L30.3635833,57.063466 L33.0969583,60.5296162 C33.3328333,60.8296617 33.6874167,61 34.0605,61 L35.295375,61 L35.295375,58.5043093 L34.657125,58.5043093 L31.6524167,54.694357 C33.71825,54.3708704 35.295375,52.5580957 35.295375,50.3718269 C35.295375,47.960524 33.362125,46.0024148 30.9771667,46.0024148 L29.1287083,46.0024148 C28.4488333,46.0024148 27.8938333,46.5571864 27.8938333,47.2463533 Z M30.3635833,48.4981055 L30.9771667,48.4981055 C32.0008333,48.4981055 32.8333333,49.3404206 32.8333333,50.3718269 C32.8333333,51.4094842 32.0008333,52.253362 30.9771667,52.253362 L30.3635833,52.253362 L30.3635833,48.4981055 Z M50.0984583,53.2597646 L47.5454583,46.7837832 C47.3219167,46.2274489 46.737625,45.9164643 46.1656667,46.0196049 C45.581375,46.1352474 45.1666667,46.6493878 45.1666667,47.2463533 L45.1666667,61 L47.6287083,61 L47.6287083,53.7426502 L50.1817083,60.2123806 C50.3744167,60.6952663 50.8322917,61 51.3271667,61 C51.40425,61 51.482875,60.9937491 51.5615,60.9812472 C52.1457917,60.8656046 52.5605,60.346776 52.5605,59.7482478 L52.5605,46.0024148 L50.0984583,46.0024148 L50.0984583,53.2597646 Z M58.7271667,48.4981055 L61.1969167,48.4981055 L61.1969167,46.0024148 L53.795375,46.0024148 L53.795375,48.4981055 L56.265125,48.4981055 L56.265125,61 L58.7271667,61 L58.7271667,48.4981055 Z M68.5984583,48.4981055 L68.5984583,46.0024148 L63.6666667,46.0024148 C62.9790833,46.0024148 62.4317917,46.5571864 62.4317917,47.2463533 L62.4317917,59.7482478 C62.4317917,60.4452284 62.9790833,61 63.6666667,61 L68.5984583,61 L68.5984583,58.5043093 L64.8938333,58.5043093 L64.8938333,54.7490527 L68.5984583,54.7490527 L68.5984583,52.253362 L64.8938333,52.253362 L64.8938333,48.4981055 L68.5984583,48.4981055 Z M69.8333333,47.2463533 L69.8333333,59.7482478 C69.8333333,60.4452284 70.380625,61 71.0605,61 L76,61 L76,58.5043093 L72.295375,58.5043093 L72.295375,54.7490527 L76,54.7490527 L76,52.253362 L72.295375,52.253362 L72.295375,48.4981055 L76,48.4981055 L76,46.0024148 L71.0605,46.0024148 C70.380625,46.0024148 69.8333333,46.5571864 69.8333333,47.2463533 Z" id="Fill-4" fill="#007ABE"></path>
                    <path d="M71,40 C71,22.9004 57.09185,9 40,9 C22.9004,9 9,22.9004 9,40 C9,41.2462 9.0837,42.5482 9.248,43.8688 L11.7063,43.565 C11.5544,42.34205 11.47535,41.1439 11.47535,40 C11.47535,24.26905 24.26905,11.47535 40,11.47535 C55.7232,11.47535 68.5169,24.26905 68.5169,40 C68.5169,41.1439 68.43785,42.34205 68.2875,43.565 L70.7458,43.8688 C70.91475,42.5482 71,41.2462 71,40 Z M58.9255,64.5396 L57.4127,62.5773 C52.3814,66.4647 46.35655,68.5169 40,68.5169 C33.6357,68.5169 27.61705,66.4647 22.58575,62.5773 L21.06675,64.5396 C26.5398,68.7649 33.08545,71 40,71 C46.913,71 53.45865,68.7649 58.9255,64.5396 Z" id="Fill-5" fill="#007ABE"></path>
                    <path d="M27.5296401,26 L25,26 L25,28.4960925 L26.2648201,28.4960925 L26.2648201,41 L28.7865649,41 L28.7865649,27.2519537 C28.7865649,26.5611128 28.2260017,26 27.5296401,26 Z M34.4743075,26 C32.0378314,26 30.051385,27.9599875 30.051385,30.3779306 L30.051385,36.6298843 C30.051385,39.0415755 32.0378314,41 34.4743075,41 C36.9107836,41 38.8972301,39.0415755 38.8972301,36.6298843 L38.8972301,30.3779306 C38.8972301,27.9599875 36.9107836,26 34.4743075,26 Z M36.36759,36.6298843 C36.36759,37.6614567 35.5164813,38.5039075 34.4743075,38.5039075 C33.4321337,38.5039075 32.5810251,37.6614567 32.5810251,36.6298843 L32.5810251,30.3779306 C32.5810251,29.3385433 33.4321337,28.4960925 34.4743075,28.4960925 C35.5164813,28.4960925 36.36759,29.3385433 36.36759,30.3779306 L36.36759,36.6298843 Z M44.5770774,26 C42.1406014,26 40.1620501,27.9599875 40.1620501,30.3779306 L40.1620501,36.6298843 C40.1620501,39.0415755 42.1406014,41 44.5770774,41 C47.0198697,41 49,39.0415755 49,36.6298843 L49,30.3779306 C49,27.9599875 47.0198697,26 44.5770774,26 Z M46.4782551,36.6298843 C46.4782551,37.6614567 45.6255675,38.5039075 44.5770774,38.5039075 C43.5349036,38.5039075 42.683795,37.6614567 42.683795,36.6298843 L42.683795,30.3779306 C42.683795,29.3385433 43.5349036,28.4960925 44.5770774,28.4960925 C45.6255675,28.4960925 46.4782551,29.3385433 46.4782551,30.3779306 L46.4782551,36.6298843 Z" id="Fill-6" fill="#FFD302"></path>
                    <polygon id="Fill-7" fill="#FFD302" points="53 38.8942781 57.8385912 29 60 30.1057219 55.1614088 40"></polygon>
                    <polygon id="Fill-8" fill="#FFD302" points="51 34 53 34 53 32 51 32"></polygon>
                    <polygon id="Fill-9" fill="#FFD302" points="59 38 61 38 61 36 59 36"></polygon>
                </g>
            </g>
        </g>
    </g>
</svg>