<?xml version="1.0" encoding="UTF-8"?>
<svg width="37px" height="67px" viewBox="0 0 37 67" version="1.1" xmlns="http://www.w3.org/2000/svg" xmlns:xlink="http://www.w3.org/1999/xlink">
    <!-- Generator: Sketch 50.2 (55047) - http://www.bohemiancoding.com/sketch -->
    <title>price-tag</title>
    <desc>Created with Sketch.</desc>
    <defs></defs>
    <g id="Mockups" stroke="none" stroke-width="1" fill="none" fill-rule="evenodd">
        <g id="Home" transform="translate(-255.000000, -2342.000000)">
            <g id="Group-19" transform="translate(130.000000, 2317.000000)">
                <g id="price-tag" transform="translate(125.000000, 25.000000)">
                    <path d="M34.6243141,23.9668101 L21.0754293,12.1757504 C20.3579414,11.5577059 19.4462346,11.2145385 18.4932671,11.2145385 C17.5404722,11.2145385 16.6285928,11.5577059 15.9104143,12.1757504 L11.1041433,16.3620493 C10.8277482,15.346617 10.6759985,14.2755916 10.6759985,13.1637293 C10.6759985,10.473297 11.5324608,7.94775661 13.0794793,6.06702776 C14.5427678,4.28290053 16.476843,3.2942353 18.4932671,3.2942353 C22.8018197,3.2942353 26.3098451,7.71457437 26.3098451,13.1637293 C26.3098451,14.0698627 27.0558184,14.8111043 27.9675252,14.8111043 C28.879232,14.8111043 29.6252053,14.0698627 29.6252053,13.1637293 C29.6252053,5.90213583 24.6254059,0 18.4932671,0 C15.4546473,0 12.6235396,1.41350645 10.5100924,3.98057007 C8.4802025,6.45188998 7.36150149,9.70460203 7.36150149,13.1637293 C7.36150149,15.1127484 7.72024543,16.9934773 8.39733576,18.723384 L2.37585853,23.9668101 C0.869928145,25.2844012 0,27.1785136 0,29.1692276 L0,58.7365294 C0,63.2936207 3.72934864,67 8.31429638,67 L28.6857036,67 C33.270824,67 37,63.2936207 37,58.7365294 L37,29.1692276 C37,27.1785136 36.1300719,25.2844012 34.6243141,23.9668101 Z M33.685503,58.7365294 C33.685503,61.4818685 31.4479283,63.7057647 28.6857036,63.7057647 L8.30013998,63.7057647 C5.53791527,63.7057647 3.30103117,61.4818685 3.30103117,58.7365294 L3.30103117,29.1692276 C3.30103117,28.1263419 3.75697088,27.1236068 4.54385965,26.4372721 L9.99959873,21.6878355 L10.4966265,22.3467169 C12.6093832,24.9137805 15.4410088,26.3279733 18.4791107,26.3279733 C19.3908175,26.3279733 20.1367908,25.5867317 20.1367908,24.6805982 C20.1367908,23.7744648 19.3908175,23.0330516 18.4791107,23.0330516 C16.4492208,23.0330516 14.529302,22.0450727 13.0653229,20.2602592 C12.8717945,20.0136934 12.6787841,19.7662697 12.4987215,19.5056341 L18.0785881,14.6462124 C18.216872,14.5230153 18.368449,14.4953903 18.4791107,14.4953903 C18.5897723,14.4953903 18.741522,14.5230153 18.8796333,14.6462124 L32.4285181,26.4372721 C33.2154069,27.1236068 33.6713466,28.1263419 33.6713466,29.1692276 L33.6713466,58.7365294 L33.685503,58.7365294 Z" id="Fill-1" fill="#007ABE"></path>
                    <path d="M20.3301601,41.8188033 L16.6700132,41.8188033 C15.3810509,41.8188033 14.3270755,40.7666823 14.3270755,39.4799877 C14.3270755,38.1927742 15.3810509,37.1413451 16.6700132,37.1413451 L23.1170776,37.1413451 C24.0315511,37.1413451 24.7801821,36.3938582 24.7801821,35.4803016 C24.7801821,34.566745 24.0315511,33.8194312 23.1170776,33.8194312 L20.1636244,33.8194312 L20.1636244,31.6603515 C20.1636244,30.7474868 19.4148201,30 18.5003466,30 C17.5851799,30 16.8365489,30.7474868 16.8365489,31.6603515 L16.8365489,33.8194312 L16.6700132,33.8194312 C13.5370272,33.8194312 11,36.3661799 11,39.4799877 C11,42.6072886 13.5507174,45.1400252 16.6700132,45.1400252 L20.3301601,45.1400252 C21.6196423,45.1400252 22.6729245,46.1914543 22.6729245,47.4788408 C22.6729245,48.7660544 21.6196423,49.8174835 20.3301601,49.8174835 L13.7591904,49.8174835 C12.8438504,49.8174835 12.0952194,50.5647973 12.0952194,51.4785269 C12.0952194,52.3920835 12.8438504,53.1387054 13.7591904,53.1387054 L16.8365489,53.1387054 L16.8365489,55.3396485 C16.8365489,56.2525132 17.5851799,57 18.5003466,57 C19.4148201,57 20.1636244,56.2525132 20.1636244,55.3396485 L20.1636244,53.1387054 L20.3991312,53.1387054 C23.4913931,53.0975339 26,50.5789824 26,47.4788408 C26,44.3513669 23.4494559,41.8188033 20.3301601,41.8188033 Z" id="Fill-2" fill="#FFD302"></path>
                </g>
            </g>
        </g>
    </g>
</svg>