<?xml version="1.0" encoding="UTF-8"?>
<svg width="71px" height="54px" viewBox="0 0 71 54" version="1.1" xmlns="http://www.w3.org/2000/svg" xmlns:xlink="http://www.w3.org/1999/xlink">
    <!-- Generator: Sketch 50.2 (55047) - http://www.bohemiancoding.com/sketch -->
    <title>Service truck icon</title>
    <desc>Created with Sketch.</desc>
    <defs>
        <polygon id="path-1" points="71 7.49567308 71 14.9913462 0 14.9913462 0 7.49567308 0 0 71 0"></polygon>
    </defs>
    <g id="Mockups" stroke="none" stroke-width="1" fill="none" fill-rule="evenodd">
        <g id="Home" transform="translate(-1141.000000, -2348.000000)">
            <g id="Group-19" transform="translate(130.000000, 2317.000000)">
                <g id="Group-6" transform="translate(988.000000, 0.000000)">
                    <g id="Service-truck-icon" transform="translate(23.000000, 31.000000)">
                        <path d="M64.9993167,42.3275281 C64.9863,42.2344075 64.9638167,42.1449151 64.94725,42.0530038 C64.9271333,41.9320681 64.9082,41.8232258 64.88335,41.7095462 C64.8502167,41.5559577 64.8099833,41.4059973 64.7650167,41.2548276 C64.7366167,41.1484041 64.7094,41.0407712 64.6762667,40.9367665 C64.6265667,40.7795499 64.5685833,40.6271708 64.5106,40.4747917 C64.4739167,40.3804618 64.4419667,40.2861319 64.4041,40.1942207 C64.3307333,40.0212825 64.2479,39.8531817 64.1674333,39.6862903 C64.1343,39.6197757 64.1059,39.5508423 64.0704,39.4855369 C63.9480729,39.2574218 63.8159833,39.0352023 63.6739833,38.8191807 C63.6420333,38.7708064 63.60535,38.7272695 63.5734,38.6788952 C63.4550667,38.5132131 63.3367333,38.3499498 63.2184,38.195152 C63.1604167,38.1225905 63.1000667,38.0548665 63.03735,37.9835144 C62.9296667,37.8625786 62.8231667,37.7331773 62.7095667,37.620707 C62.6373833,37.5457268 62.56165,37.475584 62.4859167,37.4042319 C62.3758667,37.2978084 62.2658167,37.1913849 62.14985,37.0910082 C62.0682,37.0196561 61.983,36.9531414 61.8978,36.8854173 C61.7794667,36.7922968 61.6611333,36.7015949 61.5428,36.6145212 C61.4528667,36.5504252 61.36175,36.4935854 61.2682667,36.42828 C61.1499333,36.3472531 61.02095,36.2686448 60.89315,36.194874 C60.7973,36.1380341 60.7002667,36.0848224 60.60205,36.0316106 C60.4707,35.9626772 60.3381667,35.8973719 60.2032667,35.8356947 C60.1026833,35.7885297 60.0021,35.7425741 59.9003333,35.7002466 C59.7607,35.6421974 59.6175167,35.5914043 59.4743333,35.5406113 C59.3713833,35.5043306 59.2696167,35.4668405 59.1643,35.4353972 C59.0128333,35.3894416 58.859,35.3519515 58.7051667,35.3144614 C58.6034,35.2902742 58.504,35.262459 58.40105,35.2418999 C58.2282833,35.2068285 58.0519667,35.1826414 57.8744667,35.1596636 C57.7869,35.14757 57.7005167,35.130639 57.6117667,35.1221735 C57.3443333,35.0871021 57.07335,35.0713804 56.8,35.0713804 C56.52665,35.0713804 56.2556667,35.0871021 55.9894167,35.113708 C55.9006667,35.1221735 55.8142833,35.1391045 55.7267167,35.1511981 C55.5492167,35.1741759 55.3717167,35.198363 55.2001333,35.2334344 C55.0971833,35.2539935 54.9977833,35.2818087 54.8960167,35.3059959 C54.7421833,35.343486 54.58835,35.3809761 54.4368833,35.4269317 C54.3315667,35.458375 54.2298,35.4958651 54.12685,35.5321458 C53.9836667,35.5829388 53.8404833,35.6337319 53.70085,35.6917811 C53.5990833,35.7341086 53.4985,35.7800642 53.3979167,35.8272291 C53.2630167,35.8889064 53.1304833,35.9481649 52.9991333,36.0231451 C52.9009167,36.0763569 52.8038833,36.1295686 52.7080333,36.1864085 C52.5802333,36.2601793 52.4559833,36.3387876 52.3329167,36.4198145 C52.2394333,36.4802824 52.1483167,36.5407503 52.0583833,36.6060557 C51.94005,36.6931294 51.8217167,36.7838313 51.7033833,36.8769518 C51.6181833,36.9446759 51.5329833,37.0111906 51.4513333,37.0825427 C51.333,37.1829194 51.2253167,37.2893429 51.1152667,37.3957664 C51.0395333,37.4671185 50.9638,37.5372613 50.8916167,37.6122415 C50.7732833,37.7331773 50.6715167,37.8541131 50.5638333,37.9750489 C50.5034833,38.046401 50.4455,38.114125 50.3827833,38.1866865 C50.25735,38.343903 50.1402,38.5071664 50.0277833,38.6704297 C49.9958333,38.718804 49.95915,38.7623409 49.9272,38.8107152 C49.7852,39.0259809 49.6531104,39.2480493 49.5307833,39.4770714 C49.4952833,39.5423768 49.4668833,39.6113102 49.43375,39.6778248 C49.3497333,39.8447162 49.2669,40.012817 49.1970833,40.1857552 C49.1592167,40.2776664 49.1272667,40.3719963 49.0905833,40.4663262 C49.0326,40.6187053 48.97225,40.7710844 48.9249167,40.928301 C48.8917833,41.0323057 48.8645667,41.1399386 48.8361667,41.2463621 C48.79475,41.3975318 48.7545167,41.5474922 48.7178333,41.7010807 C48.6929833,41.8147603 48.67405,41.92844 48.6539333,42.0445383 C48.6373667,42.1364495 48.6148833,42.225942 48.6018667,42.3190626 L44.9666667,42.3190626 L44.9666667,8.46550562 L49.7,8.46550562 L49.7,24.1871589 C49.7038458,27.5249868 52.3506667,30.2300182 55.6166667,30.2339486 L68.6333333,30.2339486 L68.6333333,42.3275281 L64.9993167,42.3275281 Z M56.8,49.5836758 C53.5323729,49.5836758 50.8833333,46.8763768 50.8833333,43.536886 C50.8833333,40.1973953 53.5323729,37.4900963 56.8,37.4900963 C60.0676271,37.4900963 62.7166667,40.1973953 62.7166667,43.536886 C62.7128208,46.874714 60.066,49.5797454 56.8,49.5836758 Z M16.5666667,49.5836758 C13.2990396,49.5836758 10.65,46.8763768 10.65,43.536886 C10.65,40.1973953 13.2990396,37.4900963 16.5666667,37.4900963 C19.8342937,37.4900963 22.4833333,40.1973953 22.4833333,43.536886 C22.4794875,46.874714 19.8326667,49.5797454 16.5666667,49.5836758 Z M2.36666667,41.1181702 L2.36666667,39.9088122 L9.09155,39.9088122 C9.04658333,40.0043515 9.00043333,40.0974721 8.95901667,40.1942207 C8.9176,40.2909693 8.8892,40.3804618 8.85251667,40.4747917 C8.79453333,40.6271708 8.73418333,40.7795499 8.68685,40.9367665 C8.65371667,41.0407712 8.6265,41.1484041 8.5981,41.2548276 C8.55668333,41.4059973 8.51645,41.5559577 8.47976667,41.7095462 C8.45491667,41.8232258 8.43598333,41.9369055 8.41586667,42.0530038 C8.3993,42.1449151 8.37681667,42.2344075 8.3638,42.3275281 L3.55,42.3275281 C2.89650417,42.3275281 2.36666667,41.7860381 2.36666667,41.1181702 Z M41.4166667,2.41871589 C42.0701625,2.41871589 42.6,2.96020591 42.6,3.62807384 L42.6,37.4900963 L22.3519833,37.4900963 C22.3200333,37.4574437 22.2845333,37.4272097 22.2502167,37.3957664 C22.1401667,37.2893429 22.0301167,37.1829194 21.91415,37.0825427 C21.8325,37.0111906 21.7473,36.9446759 21.6621,36.8769518 C21.5437667,36.7838313 21.4254333,36.6931294 21.3071,36.6060557 C21.2171667,36.5419597 21.12605,36.4851199 21.0325667,36.4198145 C20.9142333,36.3387876 20.78525,36.2601793 20.65745,36.1864085 C20.5616,36.1295686 20.4645667,36.0763569 20.36635,36.0231451 C20.235,35.9542117 20.1024667,35.8889064 19.9675667,35.8272291 C19.8669833,35.7800642 19.7664,35.7341086 19.6646333,35.6917811 C19.525,35.6337319 19.3818167,35.5829388 19.2386333,35.5321458 C19.1356833,35.4958651 19.0339167,35.458375 18.9286,35.4269317 C18.7771333,35.3809761 18.6233,35.343486 18.4694667,35.3059959 C18.3677,35.2818087 18.2683,35.2539935 18.16535,35.2334344 C17.9925833,35.198363 17.81035,35.1741759 17.6387667,35.1511981 C17.5512,35.1391045 17.4648167,35.1221735 17.3760667,35.113708 C17.111,35.0871021 16.8400167,35.0713804 16.5666667,35.0713804 C16.2933167,35.0713804 16.0223333,35.0871021 15.7560833,35.113708 C15.6673333,35.1221735 15.58095,35.1391045 15.4933833,35.1511981 C15.3158833,35.1741759 15.1383833,35.198363 14.9668,35.2334344 C14.86385,35.2539935 14.76445,35.2818087 14.6626833,35.3059959 C14.50885,35.343486 14.3550167,35.3809761 14.20355,35.4269317 C14.0982333,35.458375 13.9964667,35.4958651 13.8935167,35.5321458 C13.7503333,35.5829388 13.60715,35.6337319 13.4675167,35.6917811 C13.36575,35.7341086 13.2651667,35.7800642 13.1645833,35.8272291 C13.0296833,35.8889064 12.89715,35.9481649 12.7658,36.0231451 C12.6675833,36.0763569 12.57055,36.1295686 12.4747,36.1864085 C12.3469,36.2601793 12.22265,36.3387876 12.0995833,36.4198145 C12.0061,36.4802824 11.9149833,36.5407503 11.82505,36.6060557 C11.7067167,36.6931294 11.5883833,36.7838313 11.47005,36.8769518 C11.38485,36.9446759 11.29965,37.0111906 11.218,37.0825427 C11.0996667,37.1829194 10.9919833,37.2893429 10.8819333,37.3957664 C10.8405167,37.4356752 10.7967333,37.471956 10.7553167,37.5167022 C10.7207042,37.5059691 10.6855,37.4972013 10.65,37.4900963 L2.36666667,37.4900963 L2.36666667,2.41871589 L41.4166667,2.41871589 Z M24.7139167,42.0530038 C24.6938,41.9320681 24.6748667,41.8232258 24.6500167,41.7095462 C24.6168833,41.5559577 24.57665,41.4059973 24.5316833,41.2548276 C24.5032833,41.1484041 24.4760667,41.0407712 24.4429333,40.9367665 C24.3932333,40.7795499 24.33525,40.6271708 24.2772667,40.4747917 C24.2405833,40.3804618 24.2086333,40.2861319 24.1707667,40.1942207 C24.1329,40.1023095 24.0832,40.0043515 24.0382333,39.9088122 L42.6,39.9088122 L42.6,42.3275281 L24.7659833,42.3275281 C24.7529667,42.2344075 24.7316667,42.1449151 24.7139167,42.0530038 Z M55.6166667,8.46550562 C62.8020146,8.4741223 68.6249021,14.4250704 68.6333333,21.768443 L68.6333333,27.8152328 L55.6166667,27.8152328 C53.6560312,27.8152328 52.0666667,26.1909139 52.0666667,24.1871589 L52.0666667,8.46550562 L55.6166667,8.46550562 Z M55.6166667,6.04678973 L44.9666667,6.04678973 L44.9666667,3.62807384 C44.9666667,1.62431889 43.3773021,0 41.4166667,0 L1.18333333,0 C0.5298375,0 0,0.54149002 0,1.20935795 L0,41.1181702 C0,43.1219251 1.58936458,44.746244 3.55,44.746244 L8.378,44.746244 C9.02750208,49.3681077 13.2202,52.5768367 17.7427521,51.9130504 C21.3776562,51.3795723 24.2333354,48.4610893 24.7553333,44.746244 L48.6113333,44.746244 C49.2608354,49.3681077 53.4535333,52.5768367 57.9760854,51.9130504 C61.6109896,51.3795723 64.4666687,48.4610893 64.9886667,44.746244 L69.8166667,44.746244 C70.4701625,44.746244 71,44.204754 71,43.536886 L71,21.768443 C70.9902375,13.0897881 64.1085625,6.05676693 55.6166667,6.04678973 Z" id="Fill-1" fill="#007ABE"></path>
                        <path d="M11.206098,28.3817059 C11.8721657,28.3817059 12.4121961,27.8416755 12.4121961,27.1756079 C12.4121961,25.8433218 13.4921061,24.7634118 14.8243921,24.7634118 C16.1566782,24.7634118 17.2365882,25.8433218 17.2365882,27.1756079 C17.2365882,28.5078939 16.1566782,29.5878039 14.8243921,29.5878039 C14.1583245,29.5878039 13.6182941,30.1278343 13.6182941,30.793902 C13.6182941,31.4599696 14.1583245,32 14.8243921,32 C17.4888134,32 19.6487843,29.8400292 19.6487843,27.1756079 C19.6444121,26.3167153 19.4081677,25.4750096 18.9649267,24.7392898 L27.7404959,15.9649267 C28.4759142,16.4077154 29.3171676,16.6439599 30.1756079,16.6487843 C32.8400292,16.6487843 35,14.4888134 35,11.8243921 C35,11.1583245 34.4599696,10.6182941 33.793902,10.6182941 C33.1278343,10.6182941 32.5878039,11.1583245 32.5878039,11.8243921 C32.5878039,13.1565274 31.5078939,14.2365882 30.1756079,14.2365882 C28.8433218,14.2365882 27.7634118,13.1565274 27.7634118,11.8243921 C27.7634118,10.4921061 28.8433218,9.41219606 30.1756079,9.41219606 C30.8416755,9.41219606 31.3817059,8.87216567 31.3817059,8.20609803 C31.3817059,7.54003039 30.8416755,7 30.1756079,7 C27.5111866,7 25.3512157,9.15997081 25.3512157,11.8243921 C25.3555879,12.6832847 25.5918323,13.5249904 26.0350733,14.2607102 L17.2595041,23.0350733 C16.5240858,22.5922846 15.6828324,22.3560401 14.8243921,22.3512157 C12.1599708,22.3512157 10,24.5111866 10,27.1756079 C10,27.8416755 10.5400304,28.3817059 11.206098,28.3817059" id="Fill-2" fill="#FFD302"></path>
                        <path d="M57,46.5 C55.6192188,46.5 54.5,45.3807812 54.5,44 C54.5,42.6192188 55.6192188,41.5 57,41.5 C58.3807812,41.5 59.5,42.6192188 59.5,44 C59.5,45.3807812 58.3807812,46.5 57,46.5 Z M57,39 C54.2385937,39 52,41.2385937 52,44 C52,46.7614063 54.2385937,49 57,49 C59.7614063,49 62,46.7614063 62,44 C62,41.2385937 59.7614063,39 57,39 Z" id="Fill-3" fill="#007ABE"></path>
                        <g id="Group-7" transform="translate(0.000000, 39.000000)">
                            <mask id="mask-2" fill="white">
                                <use xlink:href="#path-1"></use>
                            </mask>
                            <g id="Clip-5"></g>
                            <path d="M16.5666667,6.92307692 C15.2595271,6.92307692 14.2,5.88995192 14.2,4.61538462 C14.2,3.34081731 15.2595271,2.30769231 16.5666667,2.30769231 C17.8738062,2.30769231 18.9333333,3.34081731 18.9333333,4.61538462 C18.9333333,5.88995192 17.8738062,6.92307692 16.5666667,6.92307692 Z M16.5666667,0 C13.9525354,0 11.8333333,2.06639423 11.8333333,4.61538462 C11.8333333,7.164375 13.9525354,9.23076923 16.5666667,9.23076923 C19.1807979,9.23076923 21.3,7.164375 21.3,4.61538462 C21.3,2.06639423 19.1807979,0 16.5666667,0 Z" id="Fill-4" fill="#007ABE" mask="url(#mask-2)"></path>
                            <path d="M1.18333333,12.6923077 C0.5298375,12.6923077 0,13.2089423 0,13.8461538 C0,14.4833654 0.5298375,15 1.18333333,15 L69.8166667,15 C70.4701625,15 71,14.4833654 71,13.8461538 C71,13.2089423 70.4701625,12.6923077 69.8166667,12.6923077 L1.18333333,12.6923077" id="Fill-6" fill="#007ABE" mask="url(#mask-2)"></path>
                        </g>
                    </g>
                </g>
            </g>
        </g>
    </g>
</svg>