<?xml version="1.0" encoding="UTF-8"?>
<svg width="85px" height="49px" viewBox="0 0 85 49" version="1.1" xmlns="http://www.w3.org/2000/svg" xmlns:xlink="http://www.w3.org/1999/xlink">
    <!-- Generator: Sketch 50.2 (55047) - http://www.bohemiancoding.com/sketch -->
    <title>sewer icon</title>
    <desc>Created with Sketch.</desc>
    <defs>
        <polygon id="path-1" points="0.0099609375 48.99 0.0099609375 0.042 85 0.042 85 48.99"></polygon>
    </defs>
    <g id="Mockups" stroke="none" stroke-width="1" fill="none" fill-rule="evenodd">
        <g id="Home" transform="translate(-523.000000, -1329.000000)">
            <g id="sewer-icon" transform="translate(508.000000, 1295.000000)">
                <g transform="translate(15.000000, 34.000000)">
                    <g id="waste"></g>
                    <g id="Group-4">
                        <g id="sewer-icon" fill="#007ABE">
                            <path d="M56.6292578,25.7535 C55.9666895,25.3405 55.0964355,25.545 54.6850488,26.2103333 C54.2736621,26.8753333 54.4773633,27.7493333 55.1400977,28.1621667 C55.2237695,28.2143333 63.4994824,33.4623333 63.4994824,41.3325 C63.4994824,42.1153333 64.1316699,42.75 64.9116113,42.75 C65.6913867,42.75 66.3235742,42.1153333 66.3235742,41.3325 C66.3235742,37.3971667 64.6365234,33.448 61.444375,29.912 C59.0818066,27.2946667 56.7283691,25.815 56.6292578,25.7535" id="Fill-1"></path>
                            <path d="M51.8624512,31.7793333 C50.3249805,30.166 48.7622754,29.3113333 47.7542285,28.8845 L47.7542285,14.9776667 C53.3081152,15.2541667 58.5696484,17.1591667 63.049248,20.5316667 C67.9070312,24.1891667 71.3737695,29.2156667 73.0739355,35.0681667 L76.2989551,46.1645 L56.7492871,46.1645 C56.6780664,41.7385 55.738584,35.8463333 51.8624512,31.7793333 Z M37.7914648,32.7588333 L44.9301367,32.7588333 L44.9301367,2.877 L37.7914648,2.877 L37.7914648,32.7588333 Z M83.5880371,46.1648333 L79.2404199,46.1648333 L75.7849707,34.2745 C73.9121484,27.8285 70.0941211,22.2921667 64.7434375,18.2638333 C59.7711035,14.5203333 53.9238672,12.418 47.7540625,12.1393333 L47.7540625,1.4595 C47.7540625,0.676666667 47.121875,0.042 46.3420996,0.042 L36.379502,0.042 C35.5997266,0.042 34.9675391,0.676666667 34.9675391,1.4595 L34.9675391,3.6465 L1.41196289,3.6465 C0.6321875,3.6465 0,4.28133333 0,5.06416667 C0,5.847 0.6321875,6.48166667 1.41196289,6.48166667 L34.9675391,6.48166667 L34.9675391,29.1546667 L1.41196289,29.1546667 C0.6321875,29.1546667 0,29.7893333 0,30.5721667 C0,31.3551667 0.6321875,31.9898333 1.41196289,31.9898333 L34.9675391,31.9898333 L34.9675391,34.1766667 C34.9675391,34.9595 35.5997266,35.5941667 36.379502,35.5941667 L46.3422656,35.5941667 C47.122041,35.5941667 47.7542285,34.9595 47.7542285,34.1766667 L47.7542285,32.0438333 C50.0400977,33.4221667 53.7764453,37.0623333 53.9253613,46.1648333 L22.8899023,46.1648333 C22.110127,46.1648333 21.4779395,46.7995 21.4779395,47.5825 C21.4779395,48.3653333 22.110127,49 22.8899023,49 L83.5880371,49 C84.3678125,49 85,48.3653333 85,47.5825 C85,46.7995 84.3678125,46.1648333 83.5880371,46.1648333 Z" id="Fill-3"></path>
                            <path d="M30.5784314,12 C31.3635117,12 32,11.3284345 32,10.5000882 C32,9.67156546 31.3635117,9 30.5784314,9 L4.42156863,9 C3.63648834,9 3,9.67156546 3,10.5000882 C3,11.3284345 3.63648834,12 4.42156863,12 L30.5784314,12" id="Fill-5"></path>
                        </g>
                        <mask id="mask-2" fill="white">
                            <use xlink:href="#path-1"></use>
                        </mask>
                        <g id="Clip-2"></g>
                    </g>
                </g>
            </g>
        </g>
    </g>
</svg>