<svg height="151" viewBox="0 0 139 151" width="139" xmlns="http://www.w3.org/2000/svg" xmlns:xlink="http://www.w3.org/1999/xlink"><filter id="a" height="137.8%" width="140.9%" x="-20.4%" y="-9.8%"><feOffset dx="0" dy="11" in="SourceAlpha" result="shadowOffsetOuter1"/><feGaussianBlur in="shadowOffsetOuter1" result="shadowBlurOuter1" stdDeviation="6"/><feColorMatrix in="shadowBlurOuter1" result="shadowMatrixOuter1" type="matrix" values="0 0 0 0 0   0 0 0 0 0   0 0 0 0 0  0 0 0 0.120669158 0"/><feMerge><feMergeNode in="shadowMatrixOuter1"/><feMergeNode in="SourceGraphic"/></feMerge></filter><g fill="none" fill-rule="evenodd" filter="url(#a)" transform="translate(12 1)"><path d="m39.99475 9.18750524c1.31975-1.41153459 3.5675-1.41153459 4.88725 0 9.02975 9.65845916 39.99475 45.00021176 39.99475 75.46321386 0 23.3888639-19.0005 42.3492809-42.43825 42.3492809-23.438 0-42.4385-18.960417-42.4385-42.3492809.00025-30.4630021 30.96525-65.8047547 39.99475-75.46321386" fill="#41b6f7"/><path d="m64.77475 115.855413c-23.438 0-42.4385-18.9604172-42.4385-42.3492809 0-20.9217967 14.60225-44.1335325 26.67675-59.7569602-1.6285-1.8518595-3.03275-3.3861363-4.12025-4.54994129-1.3245-1.41702306-3.57325-1.428-4.898-.01122642-9.03025 9.65895811-39.9945 45.00021171-39.9945 75.46271491 0 23.3888639 19.0005 42.3492809 42.4385 42.3492809 11.3755 0 21.68225-4.491813 29.30225-11.763287-2.272.375212-4.58825.6187-6.96625.6187" fill="#1e93d3"/><path d="m39.001425 120c-.0449926 0-.0897613-.000987-.1347539-.005427-1.4334949-.105579-2.8690044-.317476-4.2655651-.630513-1.0818365-.243226-1.7811241-1.406566-1.5604143-2.600248.2186953-1.192203 1.2792666-1.960609 2.3572978-1.719603 1.222858.274554 2.4783972.460797 3.7343841.553302 1.1035493.080664 1.9353524 1.130779 1.8632747 2.345922-.0702869 1.164574-.9513356 2.056567-1.9942233 2.056567" fill="#41b6f7"/><path d="m48.2039601 121c-1.0278337 0-1.9457716-.753778-2.1588952-1.846731-.2437463-1.24872.5255238-2.467991 1.7215349-2.722953 10.544803-2.248161 19.3381892-10.253761 22.947461-20.8942277.4072315-1.2024805 1.6721436-1.8278736 2.8160469-1.4029369 1.1485955.4262283 1.749688 1.7457277 1.3424565 2.9469166-4.1219538 12.156289-14.1716087 21.303407-26.2270456 23.873951-.1464453.031515-.2951132.045981-.4415585.045981" fill="#41b6f7"/><path d="m73.5444126 94.1284243c-1.1327709-.4098507-2.3853729.1933399-2.7886413 1.3531301-3.110229 8.9307586-10.1103228 15.9328516-18.7557713 19.0300276 2.3381742.703099 4.7568064 1.213855 7.2468481 1.488418 7.1617436-4.193433 12.8018765-10.913987 15.6269563-19.0292799.4032684-1.1585445-.1919744-2.4311994-1.3293918-2.8422958" fill="#b4e4fe"/><path d="m83.7436283 84.4023767c0-20.4594634-14.2378737-43.1367127-26.189777-58.5734201-5.2969851 9.4215827-9.4148699 19.9447832-9.4148699 29.930122 0 19.2471165 15.6652974 34.9171192 35.0315353 35.224645.3437175-2.1494743.5731116-4.3364336.5731116-6.5813469" fill="#63c5fb"/><path d="m81.2803197 1.08164228c1.3198253-1.44169648 3.6065428-1.44169648 4.9266171 0 7.3620297 8.03882655 28.6909442 33.18417342 28.6909442 54.67743632 0 17.0359892-13.948204 30.8465339-31.1542527 30.8465339-17.2060484 0-31.1540038-13.8105447-31.1540038-30.8465339 0-21.4932629 21.3289145-46.63860977 28.6906952-54.67743632" fill="#41b6f7"/><path d="m103.771398 75.5889404c-17.2060486 0-31.154253-13.8105447-31.154253-30.8465339 0-13.6573984 8.611368-28.7836206 16.7796394-40.06416802-1.2221896-1.41826829-2.3056469-2.62839566-3.1886022-3.59314363-1.3233123-1.44588889-3.6057956-1.44712195-4.9293569-.00147967-7.3635242 8.04079945-28.6889517 33.18368022-28.6889517 54.67571002 0 17.0359892 13.9479554 30.8465339 31.1540037 30.8465339 9.7169926 0 18.3913757-4.4077046 24.1045577-11.3103876-1.337758.173122-2.691955.2934689-4.077037.2934689" fill="#1e93d3"/><path d="m84.1665858 81c-1.1975152 0-2.1665858-1.0075924-2.1665858-2.2501469s.9690706-2.2498951 2.1665858-2.2498951c10.7529008 0 19.5002422-9.0847005 19.5002422-20.2498111 0-1.2428064.969071-2.2501469 2.166586-2.2501469 1.197758 0 2.166586 1.0073405 2.166586 2.2501469 0 13.6471976-10.6915457 24.7498531-23.8334142 24.7498531" fill="#fffffe"/><path d="m99 75.7167751c-2.0252165-.3728646-3.9793201-.951071-5.8512932-1.7167751-2.6907736 1.4206141-5.7093178 2.2409162-8.9116538 2.2409162-1.2364638 0-2.237053 1.0653274-2.237053 2.3794087 0 1.3140814 1.0005892 2.3796751 2.237053 2.3796751 5.542052 0 10.6446562-1.9820416 14.762947-5.2832249" fill="#d5eef3"/></g></svg>