<svg height="78" viewBox="0 0 61 78" width="61" xmlns="http://www.w3.org/2000/svg" xmlns:xlink="http://www.w3.org/1999/xlink"><mask id="a" fill="#fff"><path d="m0 51.5537135v26.4340557h60.8729336v-26.4340557-26.4340558h-60.8729336z" fill="none"/></mask><g fill="none" fill-rule="evenodd" transform=""><g fill="#ffd302"><path d="m30.5001099 14c-.8288289 0-1.5001099-.6273309-1.5001099-1.4000615v-11.19987698c0-.77293568.671281-1.40006152 1.5001099-1.40006152.8286091 0 1.4998901.62712584 1.4998901 1.40006152v11.19987698c0 .7727306-.671281 1.4000615-1.4998901 1.4000615"/><path d="m11.6252014 17c-.3520838 0-.7033619-.1339437-.9722588-.4028382l-8.25020144-8.25012587c-.53698821-.53698329-.53698821-1.40731517 0-1.94429846.5369882-.53698329 1.40732806-.53698329 1.94431626 0l8.25020138 8.25012593c.5369883.5369832.5369883 1.4073151 0 1.9442984-.2680912.2688945-.620175.4028382-.9720574.4028382"/><path d="m50.3747986 17c-.3518824 0-.7033619-.1339437-.9720574-.4028382-.5369883-.5369833-.5369883-1.4073152 0-1.9442984l8.2502014-8.25012593c.5369882-.53698329 1.407328-.53698329 1.9443162 0 .5369883.53698329.5369883 1.40731517 0 1.94429846l-8.2502014 8.25012587c-.2682927.2688945-.620175.4028382-.9722588.4028382"/></g><path d="m8.77770996 70.2103973h44.44437664v-29.2955276c0-9.9946804-8.0999756-18.125267-18.0568441-18.125267h-8.3306885c-9.9568685 0-18.05684404 8.1305866-18.05684404 18.125267zm45.83333334 2.7896027h-47.22229004c-.76721192 0-1.38875326-.624974-1.38875326-1.3948014v-30.6903289c0-11.5324964 9.3465169-20.9148697 20.834554-20.9148697h8.3306885c11.4882406 0 20.8347575 9.3823733 20.8347575 20.9148697v30.6903289c0 .7698274-.6215413 1.3948014-1.3889567 1.3948014z" fill="#007abe"/><path d="m12.4512957 43.2103923c-.7644253 0-1.3835449-.6235654-1.3835449-1.3916577 0-9.2075269 7.4472691-16.6990769 16.6017276-16.6990769.7644253 0 1.3835449.6233615 1.3835449 1.3916577 0 .7680923-.6191196 1.3914538-1.3835449 1.3914538-7.6276345 0-13.8346379 6.2427885-13.8346379 13.9159654 0 .7680923-.6191196 1.3916577-1.3835448 1.3916577" fill="#007abe" mask="url(#a)"/><path d="m2.76688704 75.2168885h55.33915946v-2.7831116h-55.33915946zm56.72270436 2.7831115h-58.10604655c-.76442525 0-1.38354485-.6233615-1.38354485-1.3914538v-5.566427c0-.7680923.6191196-1.3916577 1.38354485-1.3916577h58.10604655c.7642226 0 1.3833422.6235654 1.3833422 1.3916577v5.566427c0 .7680923-.6191196 1.3914538-1.3833422 1.3914538z" fill="#007abe" mask="url(#a)"/></g></svg>